 http://highspeedchat.hostzi.com/

      ) (`-.                           (` .-') /`           ) (`-.
       ( OO ).                          `.( OO ),'            ( OO ).
      (_/.  _)-.-'),-----. ,--.     ,--./  .--.  .-'),-----.(_/.  _)-.
         `.'  ( OO'  .-.  '|  |.-') |      |  | ( OO'  .-.  '  `.'  /
             /Y   |  | |  ||  | OO )|  |   |  |,/   |  | |  |      /
             _) |  ||  ||  |`-' ||  |.'.|  |_)_) |  ||  |      |
        .'    _) |  | |  (|  '---.'|         |    |  | |  | .'    _)
       /  .'.    `'  '-'  '|      | |   ,'.   |    `'  '-'  '/  .'.  
      '--'   '--'   `-----' `------' '--'   '--'      `-----''--'   '--'


      â–€â–€â–€â–€â–€â–€â–€â–€â–€â–€â–€â–€â–€â–€â–€â–€â–€â–€â–€â–€â–€â–€â–€â–€â–€â–€â–€â–€â–€â–€â–€â–€â–€â–€â–€â–€â–€â–€â–€â–€â–€â–€â–€â–€â–€â–€â–€â–€â–€â–€â–€â–€â–€â–€â–€â–€â–€â–€â–€â–€â–€â–€â–€â–€â–€â–€â–€â–€â–€â–€

                â–ˆâ–‘â–‘â–‘â–‘â–‘â–‘â–‘â–‘â–‘â–‘â–‘â–‘â–‘â–‘â–‘â–‘â–‘â–‘â–‘â–‘â–‘â–‘â–‘â–‘â–‘â–‘â–‘â–‘â–‘â–‘â–‘â–‘â–‘â–‘â–‘â–‘â–‘â–ˆ
               â–ˆâ–ˆ Inglourious Basterds[2009]DvDrip-LW â–ˆâ–ˆ
                â–ˆâ–‘â–‘â–‘â–‘â–‘â–‘â–‘â–‘â–‘â–‘â–‘â–‘â–‘â–‘â–‘â–‘â–‘â–‘â–‘â–‘â–‘â–‘â–‘â–‘â–‘â–‘â–‘â–‘â–‘â–‘â–‘â–‘â–‘â–‘â–‘â–‘â–‘â–ˆ

File Name    : Inglourious Basterds[2009]DvDrip-LW
Type         : Movie
Format       : AVI
File Size    : 700 MB
Duration     : 02:32:59
Language     : English
Source       : DvD
Subtitles    : None
Genre        : Drama | War
IMDB Link    : http://www.imdb.com/title/tt0361748/
IMDB Rating  : 8.6/10
IMDB Votes   : 84,575 Votes
     â–„â–„â–„â–„â–„â–„â–„â–„â–„â–„â–„â–„â–„â–„â–„â–„â–„â–„â–„â–„â–„â–„â–„â–„â–„â–„â–„â–„â–„â–„â–„â–„â–„â–„â–„â–„â–„â–„â–„â–„â–„â–„â–„â–„â–„â–„â–„â–„â–„â–„â–„â–„â–„â–„â–„â–„â–„â–„â–„â–„â–„â–„â–„â–„â–„â–„â–„â–„â–„â–„
 
                        â–ˆâ–‘â–‘â–‘â–‘â–‘â–‘â–‘â–‘â–‘â–‘â–‘â–‘â–‘â–‘â–‘â–‘â–‘â–‘â–‘â–‘â–‘â–‘â–‘â–‘â–ˆ
                       â–ˆâ–ˆ       Video Info       â–ˆâ–ˆ
                        â–ˆâ–‘â–‘â–‘â–‘â–‘â–‘â–‘â–‘â–‘â–‘â–‘â–‘â–‘â–‘â–‘â–‘â–‘â–‘â–‘â–‘â–‘â–‘â–‘â–‘â–ˆ

Format                           : MPEG-4 Visual
Format profile                   : Streaming Video@L1
Format settings, BVOP            : Yes
Format settings, QPel            : No
Format settings, GMC             : No warppoints
Format settings, Matrix          : Custom
Codec ID                         : XVID
Codec ID/Hint                    : XviD
Duration                         : 2h 32mn
Bit rate                         : 519 Kbps
Width                            : 624 pixels
Height                           : 272 pixels
Display aspect ratio             : 2.25
Frame rate                       : 23.976 fps
Resolution                       : 24 bits
Colorimetry                      : 4:2:0
Scan type                        : Progressive
Bits/(Pixel*Frame)               : 0.127
Stream size                      : 568 MiB (81%)
Writing library                  : XviD 1.2.1
     â–„â–„â–„â–„â–„â–„â–„â–„â–„â–„â–„â–„â–„â–„â–„â–„â–„â–„â–„â–„â–„â–„â–„â–„â–„â–„â–„â–„â–„â–„â–„â–„â–„â–„â–„â–„â–„â–„â–„â–„â–„â–„â–„â–„â–„â–„â–„â–„â–„â–„â–„â–„â–„â–„â–„â–„â–„â–„â–„â–„â–„â–„â–„â–„â–„â–„â–„â–„â–„â–„

                         â–ˆâ–‘â–‘â–‘â–‘â–‘â–‘â–‘â–‘â–‘â–‘â–‘â–‘â–‘â–‘â–‘â–‘â–‘â–‘â–‘â–‘â–‘â–‘â–‘â–‘â–ˆ
                        â–ˆâ–ˆ      Sound Info        â–ˆâ–ˆ
                         â–ˆâ–‘â–‘â–‘â–‘â–‘â–‘â–‘â–‘â–‘â–‘â–‘â–‘â–‘â–‘â–‘â–‘â–‘â–‘â–‘â–‘â–‘â–‘â–‘â–‘â–ˆ

Format                           : MPEG Audio
Format version                   : Version 1
Format profile                   : Layer 3
Codec ID                         : 55
Codec ID/Hint                    : MP3
Duration                         : 2h 32mn
Bit rate mode                    : Variable
Bit rate                         : 109 Kbps
Minimum bit rate                 : 128 Kbps
Channel(s)                       : 2 channels
Sampling rate                    : 48.0 KHz
Resolution                       : 16 bits
Stream size                      : 119 MiB (17%)
Alignment                        : Aligned on interleaves
Interleave, duration             : 24 ms (0.58 video frame)
Interleave, preload duration     : 169 ms
Writing library                  : LAME3.98r
Encoding settings                : ABR
    â–„â–„â–„â–„â–„â–„â–„â–„â–„â–„â–„â–„â–„â–„â–„â–„â–„â–„â–„â–„â–„â–„â–„â–„â–„â–„â–„â–„â–„â–„â–„â–„â–„â–„â–„â–„â–„â–„â–„â–„â–„â–„â–„â–„â–„â–„â–„â–„â–„â–„â–„â–„â–„â–„â–„â–„â–„â–„â–„â–„â–„â–„â–„â–„â–„â–„â–„â–„â–„â–„

                          â–ˆâ–‘â–‘â–‘â–‘â–‘â–‘â–‘â–‘â–‘â–‘â–‘â–‘â–‘â–‘â–‘â–‘â–‘â–‘â–‘â–‘â–‘â–‘â–‘â–‘â–ˆ
                         â–ˆâ–ˆ          Plot          â–ˆâ–ˆ
                          â–ˆâ–‘â–‘â–‘â–‘â–‘â–‘â–‘â–‘â–‘â–‘â–‘â–‘â–‘â–‘â–‘â–‘â–‘â–‘â–‘â–‘â–‘â–‘â–‘â–‘â–ˆ

A Jewish cinema owner (MÎ˜lanie Laurent) in occupied 
Paris is forced to host a Nazi movie premiere, where 
a radical group of American Jewish soldiers called the 
Basterds, led by Lt. Aldo Raine (Brad Pitt), plans to 
roll out a score-settling scheme. The face-off is 
about to go down -- that's if Col. Hans Landa aka "The 
Jew Hunter" (Christoph Waltz) doesn't get in the way. 
Quentin Tarantino directs this World War II-set spaghetti
Western.

Starring: Brad Pitt, Christoph Waltz

Director: Quentin Tarantino
    â–„â–„â–„â–„â–„â–„â–„â–„â–„â–„â–„â–„â–„â–„â–„â–„â–„â–„â–„â–„â–„â–„â–„â–„â–„â–„â–„â–„â–„â–„â–„â–„â–„â–„â–„â–„â–„â–„â–„â–„â–„â–„â–„â–„â–„â–„â–„â–„â–„â–„â–„â–„â–„â–„â–„â–„â–„â–„â–„â–„â–„â–„â–„â–„â–„â–„â–„â–„â–„â–„

ScreenShots 
http://imgshack.info/images/1wrd682w7on9gz2q7zkp.png 
http://imgshack.info/images/q5mfq5b9kg8ic046tgw.png 
http://imgshack.info/images/jedp6imiu8o40vb794o2.png 
http://imgshack.info/images/5xs00leygmpf7qfjji7g.jpg 
http://highspeedchat.hostzi.com/